<svg xmlns="http://www.w3.org/2000/svg" width="836.397" height="127.534" viewBox="0 0 836.397 127.534">
  <g id="Group_143" data-name="Group 143" transform="translate(-6508.426 1121.253)">
    <g id="Group_142" data-name="Group 142">
      <g id="g20" transform="translate(6536.854 -1111.124)">
        <path id="path22" d="M0,0-6.608-2.445-9.053-9.055A1.651,1.651,0,0,0-10.6-10.129a1.651,1.651,0,0,0-1.547,1.075l-2.444,6.609L-21.2,0a1.646,1.646,0,0,0-1.075,1.545A1.649,1.649,0,0,0-21.2,3.091l6.609,2.445,2.444,6.609A1.651,1.651,0,0,0-10.6,13.22a1.651,1.651,0,0,0,1.545-1.075l2.445-6.609L0,3.091A1.65,1.65,0,0,0,1.076,1.545,1.647,1.647,0,0,0,0,0" fill="#ffb81c"/>
      </g>
      <g id="g24" transform="translate(6628.514 -1005.468)">
        <path id="path26" d="M0,0A9.907,9.907,0,0,1-9.836,8.852,13.523,13.523,0,0,1-11.551,8.7C-31.915,6.109-46.641-7.708-54.839-19.835A82.21,82.21,0,0,1-60.7-30.343a2.378,2.378,0,0,1,2.229-3.385,26.6,26.6,0,0,0,9.049-1.361c13.383-3.98,24.957-13.052,32.4-29.421,2.541-5.589,10.175-6.932,15.145-2.756A10.131,10.131,0,0,1,.107-54.557C-7.369-41.1-16.787-30.975-30.2-24.387a1.749,1.749,0,0,0-.093,3c4.937,3.293,14.173,8.32,21.725,10.5C-3.481-9.416.573-5.267,0,0M-73.173-62.231c-.089-3.069-.059-6.228.113-9.468.38-7.144,3.247-13.245,7.865-16.733A13.917,13.917,0,0,1-53.373-90.9c9.192,2.091,10.1,10.071,10.16,12.467.147,5.945-3.145,13.86-12.905,16.593a30.152,30.152,0,0,1-17.055-.395m2.881,22.588a1.288,1.288,0,0,1,1.4-1.555,48.471,48.471,0,0,0,18.115-1.567c19.387-5.428,27.713-22.069,27.364-36.155-.384-15.563-10.42-27.847-25.569-31.291a33.58,33.58,0,0,0-28.152,5.975c-8.509,6.428-14.025,16.6-15.424,28.243a1.175,1.175,0,0,1-1.959.743,73.027,73.027,0,0,1-7.761-8.233,9.906,9.906,0,0,0-13.871-1.939,9.9,9.9,0,0,0-1.939,13.872A93.7,93.7,0,0,0-92.028-48.94c4.128,33.855,19.6,55.523,20.4,56.617a9.864,9.864,0,0,0,8,4.071,9.871,9.871,0,0,0,5.8-1.881,9.917,9.917,0,0,0,2.24-13.813c-.139-.192-9.723-13.8-14.7-35.7" fill="#0072ce"/>
      </g>
    </g>
    <g id="g28" transform="translate(6711.543 -1056.462)" fill="#fff">
      <path id="path30" d="M0,0C0-7.505-3.028-18.565-14.352-18.565c-5.793,0-9.48,2.9-12.115,6.452a1.838,1.838,0,0,0-.395,1.184V11.061a3.15,3.15,0,0,0,.264,1.185A14.645,14.645,0,0,0-14.352,18.7C-3.028,18.7,0,7.637,0,0M21.068,0c0,17.513-9.875,35.157-29.627,35.157a22.348,22.348,0,0,1-16.985-8.032c-.659-.791-1.317-.528-1.317.395V60.965a.969.969,0,0,1-1.053,1.053h-18.96a.969.969,0,0,1-1.053-1.053V-33.577a.969.969,0,0,1,1.053-1.053h18.96a.969.969,0,0,1,1.053,1.053v6.189c0,.921.527,1.316,1.055.659a22.462,22.462,0,0,1,17.248-8.3C11.193-35.025,21.068-17.512,21.068,0"/>
    </g>
    <g id="g32" transform="translate(6766.301 -1065.021)" fill="#fff">
      <path id="path34" d="M0,0Q0,1.184.791,1.185h20.8A.94.94,0,0,0,22.647.263c0-5.661-3.423-11.587-11.191-11.587A11.419,11.419,0,0,0,0,0M45.032,13.957a.969.969,0,0,1-1.055,1.053H.791c-.659,0-.923.264-.923,1.053,0,6.584,5.925,11.192,11.588,11.192,6.32,0,10.4-3.028,12.244-5.661a1.157,1.157,0,0,1,1.317-.659l17.644,2.369c.659.132,1.053.528.791,1.185C39.9,34.631,29.757,43.716,12.64,43.716c-23.173,0-35.024-15.669-35.024-35.157,0-19.356,13.167-35.025,33.84-35.025,23.043,0,33.576,17.117,33.576,34.631Z"/>
    </g>
    <g id="g36" transform="translate(6873.901 -1088.459)" fill="#fff">
      <path id="path38" d="M0,0-2.239,14.484a.88.88,0,0,1-1.316.659A16.217,16.217,0,0,0-10.8,13.431c-8.427,0-16.723,7.111-16.723,23.307V65.705a.969.969,0,0,1-1.053,1.053h-18.96a.968.968,0,0,1-1.053-1.053V-1.58a.968.968,0,0,1,1.053-1.053h18.96A.969.969,0,0,1-27.52-1.58V7.243c0,1.053.659,1.184,1.185.395C-22.648,1.58-16.985-3.028-8.955-3.028c4.609,0,6.848.921,8.3,1.712A1.153,1.153,0,0,1,0,0"/>
    </g>
    <g id="g40" transform="translate(6881.653 -1042.109)" fill="#fff">
      <path id="path42" d="M0,0C-.133-.659.395-1.053,1.052-1.053L17.643-3.819c.66-.132.791.131,1.185,1.053C20.8,1.711,25.544,4.345,32.391,4.345c3.292,0,7.111-1.712,7.111-4.608s-1.185-5.927-11.193-8.56C14.483-12.509,3.159-17.251,3.159-29.5c0-11.455,11.193-19.881,27.652-19.881,18.961,0,25.676,9.875,27.52,19.487.132.659-.4.921-1.053,1.053L40.555-26.6c-.659.132-.921-.263-1.053-1.053-.791-3.16-3.819-5.267-8.691-5.267-2.9,0-6.584,1.58-6.584,4.609,0,5.4,7.637,5.529,19.093,9.743C53.855-14.748,60.569-9.612,60.569,1.185c0,14.088-14.089,19.62-29.364,19.62C13.3,20.805,3.292,12.113,0,0"/>
    </g>
    <g id="g44" transform="translate(6973.398 -1056.462)" fill="#fff">
      <path id="path46" d="M0,0C0,10.4,5.268,18.7,15.275,18.7S30.681,10.4,30.681,0s-5.4-18.565-15.407-18.565S0-10.4,0,0M-21.068,0c0-19.356,14.353-35.025,36.343-35.025S51.749-19.356,51.749,0,37.264,35.157,15.275,35.157-21.068,19.357-21.068,0"/>
    </g>
    <g id="g48" transform="translate(7090.623 -1021.7)" fill="#fff">
      <path id="path50" d="M0,0A1.616,1.616,0,0,1-1.316-.657L-21.727-28.836c-.525-.659-.791-.659-1.448-.132l-6.979,6.189a1.69,1.69,0,0,0-.527,1.316V-1.053A.969.969,0,0,1-31.733,0H-50.695a.969.969,0,0,1-1.053-1.053V-98.1a.969.969,0,0,1,1.053-1.053h18.961A.969.969,0,0,1-30.68-98.1v51.089c0,.921.657,1.316,1.317.657L-4.872-68.865a1.692,1.692,0,0,1,1.316-.527H20.015c.921,0,1.184.659.525,1.317l-27.913,26.2a.937.937,0,0,0-.132,1.448L20.805-1.316C21.463-.527,21.068,0,20.277,0Z"/>
    </g>
    <g id="g52" transform="translate(7123.524 -1119.797)" fill="#fff">
      <path id="path54" d="M0,0A.969.969,0,0,1,1.053-1.053H20.015A.969.969,0,0,1,21.068,0V97.042A.969.969,0,0,1,20.015,98.1H1.053A.969.969,0,0,1,0,97.042Z"/>
    </g>
    <g id="g56" transform="translate(7161.035 -1090.039)" fill="#fff">
      <path id="path58" d="M0,0A.969.969,0,0,1,1.053-1.053H20.015A.969.969,0,0,1,21.068,0V67.285a.969.969,0,0,1-1.053,1.053H1.053A.969.969,0,0,1,0,67.285ZM0-20.277A10.564,10.564,0,0,1,10.533-30.811,10.565,10.565,0,0,1,21.068-20.277,10.565,10.565,0,0,1,10.533-9.744,10.564,10.564,0,0,1,0-20.277"/>
    </g>
    <g id="g60" transform="translate(7258.669 -1036.579)" fill="#fff">
      <path id="path62" d="M0,0A.939.939,0,0,1,.132,1.448,32.726,32.726,0,0,1-26.993,15.275c-20.673,0-36.341-15.669-36.341-35.157,0-19.356,15.668-35.025,36.341-35.025A32.4,32.4,0,0,1,.132-41.083.939.939,0,0,1,0-39.635l-10.533,9.613c-.528.395-1.187.395-1.449-.132-2.371-4.608-6.321-8.295-13.695-8.295-9.084,0-16.589,7.768-16.589,18.565s7.505,18.7,16.589,18.7c7.373,0,11.324-3.951,13.695-8.164.4-.657.921-.525,1.449-.131Z"/>
    </g>
    <g id="g64" transform="translate(7323.686 -1021.7)" fill="#fff">
      <path id="path66" d="M0,0A1.616,1.616,0,0,1-1.316-.657L-21.727-28.836c-.525-.659-.789-.659-1.448-.132l-6.979,6.189a1.69,1.69,0,0,0-.527,1.316V-1.053A.969.969,0,0,1-31.733,0H-50.695a.969.969,0,0,1-1.053-1.053V-98.1a.969.969,0,0,1,1.053-1.053h18.961A.969.969,0,0,1-30.68-98.1v51.089c0,.921.657,1.316,1.317.657L-4.872-68.865a1.692,1.692,0,0,1,1.317-.527H20.015c.921,0,1.184.659.525,1.317l-27.913,26.2a.937.937,0,0,0-.132,1.448L20.805-1.316C21.463-.527,21.068,0,20.277,0Z"/>
    </g>
  </g>
</svg>
